<svg width="20" height="20" viewBox="0 0 20 20" fill="none" xmlns="http://www.w3.org/2000/svg">
<path fill-rule="evenodd" clip-rule="evenodd" d="M0.749512 13.5022C1.16373 13.5022 1.49951 13.838 1.49951 14.2522V17.253C1.49951 17.9434 2.05916 18.503 2.74951 18.503H17.2495C17.9399 18.503 18.4995 17.9434 18.4995 17.253V14.2522C18.4995 13.838 18.8353 13.5022 19.2495 13.5022C19.6637 13.5022 19.9995 13.838 19.9995 14.2522V17.253C19.9995 18.7718 18.7683 20.003 17.2495 20.003H2.74951C1.23073 20.003 -0.000488281 18.7718 -0.000488281 17.253V14.2522C-0.000488281 13.838 0.335298 13.5022 0.749512 13.5022Z" fill="white"/>
<path d="M10 16.4525C9.5858 16.4525 9.25001 16.1168 9.25001 15.7025L9.25001 6.85299H6.41614C5.61955 6.85299 5.1767 5.93155 5.67431 5.30953L9.25819 0.829685C9.6385 0.354299 10.3615 0.354297 10.7418 0.829684L14.3257 5.30953C14.8233 5.93155 14.3805 6.85299 13.5839 6.85299H10.75L10.75 15.7025C10.75 16.1168 10.4142 16.4525 10 16.4525Z" fill="white"/>
</svg>
